<svg xmlns="http://www.w3.org/2000/svg" width="384" height="384" viewBox="0 0 384 384"><defs><linearGradient id="g" x1="0" y1="0" x2="0" y2="1"><stop stop-color="#b8ef75"/><stop offset="1" stop-color="#3f7d37"/></linearGradient></defs><g stroke="#21351d" stroke-width="10" stroke-linejoin="round"><path fill="#5b6753" d="M87 244l26-92 61-46 87 9 53 66-8 102-72 51-99-7z"/><path fill="url(#g)" d="M131 188l42-35 64 7 31 48-11 61-50 31-61-17-25-51z"/><path fill="#80613b" d="M145 150l-47-60 24-24 36 54m89 42 44-63-26-25-32 58"/><path fill="none" stroke="#8ff07b" d="M178 173l15 26 18-25 13 42 32 13-28 24 2 39-38-19-36 18 7-38-30-24 34-9z"/><path fill="#6d7d64" d="M102 234l-50 45 62 7m167-41 54 41-60 10"/></g></svg>