<svg xmlns="http://www.w3.org/2000/svg" width="256" height="320" viewBox="0 0 256 320"><g stroke="#172d48" stroke-width="4" stroke-linejoin="round"><g transform="translate(0,0)"><ellipse cx="94" cy="280" rx="27" ry="15.0" fill="#83abb7"/><ellipse cx="161" cy="280" rx="27" ry="15" fill="#83abb7"/><ellipse cx="128" cy="208" rx="61" ry="73" fill="#83abb7"/><ellipse cx="67" cy="197.0" rx="25" ry="20" fill="#83abb7"/><ellipse cx="188" cy="193.0" rx="25" ry="20" fill="#83abb7"/><path d="M64 82l-15-33 42 15 39-34 40 34 40-15-18 42z" fill="#8d6850"/><path d="M39 190l-27-91 68 58M189 154l55-55-19 93" fill="#997cb3"/><path d="M152 183h49v71h-49z" fill="#bad2d8"/><circle cx="174" cy="209" r="16" fill="#4b7991"/><ellipse cx="128" cy="105" rx="65" ry="57" fill="#83abb7"/><ellipse cx="102" cy="103" rx="9" ry="15" fill="#f4fcff"/><ellipse cx="155" cy="103" rx="9" ry="15" fill="#f4fcff"/><ellipse cx="104" cy="105" rx="5" ry="9" fill="#29475f"/><ellipse cx="157" cy="105" rx="5" ry="9" fill="#29475f"/><path d="M108 132q19 14 40 0" fill="none" stroke-width="3"/></g></g></svg>