<svg xmlns="http://www.w3.org/2000/svg" width="256" height="320" viewBox="0 0 256 320"><g stroke="#172d48" stroke-width="4" stroke-linejoin="round"><g transform="translate(0,0)"><ellipse cx="94" cy="280" rx="27" ry="15.0" fill="#8cc57c"/><ellipse cx="161" cy="280" rx="27" ry="15" fill="#8cc57c"/><ellipse cx="128" cy="208" rx="61" ry="73" fill="#8cc57c"/><ellipse cx="67" cy="197.0" rx="25" ry="20" fill="#8cc57c"/><ellipse cx="188" cy="193.0" rx="25" ry="20" fill="#8cc57c"/><ellipse cx="128" cy="105" rx="65" ry="57" fill="#8cc57c"/><path d="M95 63l-24-37 46 14 14-29 23 27 32-14-23 39z" fill="#e991bf"/><circle cx="132" cy="44" r="15" fill="#f8da76"/><ellipse cx="102" cy="103" rx="9" ry="15" fill="#f4fcff"/><ellipse cx="155" cy="103" rx="9" ry="15" fill="#f4fcff"/><ellipse cx="104" cy="105" rx="5" ry="9" fill="#29475f"/><ellipse cx="157" cy="105" rx="5" ry="9" fill="#29475f"/><path d="M108 132q19 14 40 0" fill="none" stroke-width="3"/></g></g></svg>