<svg xmlns="http://www.w3.org/2000/svg" width="256" height="320" viewBox="0 0 256 320"><g stroke="#172d48" stroke-width="4" stroke-linejoin="round"><path d="M55 105Q37 235 74 242L91 132h72l16 110q39-18 22-136Z" fill="#d8804c"/><path d="M86 176L66 218l16 18 17-26h58l18 26 16-18-19-42z" fill="#dd7b98"/><path d="M99 224l-4 60h25l10-38 8 38h25l-6-60z" fill="#ead2a0"/><path d="M95 279h27l3 26H84zM137 279h28l13 26h-42z" fill="#dd7b98"/><ellipse cx="126" cy="121" rx="68" ry="65" fill="#ffd5b3"/><path d="M60 116l-8-37 31 1 6-29 24 16 19-31 18 34 38-19-3 39 20 17-13 28z" fill="#d8804c"/><path d="M57 72Q63 28 130 32q70 0 70 46l-41-15-78 12z" fill="#72a8d6"/><ellipse cx="97" cy="120" rx="9" ry="13" fill="#eaf8ff"/><ellipse cx="158" cy="120" rx="9" ry="13" fill="#eaf8ff"/><ellipse cx="99" cy="123" rx="4" ry="7" fill="#315579"/><ellipse cx="157" cy="123" rx="4" ry="7" fill="#315579"/><path d="M117 147q11 8 23 0" fill="none" stroke-width="3"/><path d="M92 208h69l15 44H80z" fill="#dd7b98"/></g></svg>